<?xml version="1.0" encoding="UTF-8"?><svg id="_레이어_2" xmlns="http://www.w3.org/2000/svg" viewBox="0 0 21.93 21.84"><defs><style>.cls-1{fill:#FFFFFF;}</style></defs><g id="_레이어_1-2"><path class="cls-1" d="m17.25,17.37H7.81c-.91,0-1.71-.58-2-1.44L0,.71l1.87-.71,2.07,5.43h15.88c.68,0,1.32.33,1.71.88s.5,1.26.29,1.9l-2.57,7.72c-.29.86-1.09,1.44-2,1.44ZM4.7,7.43l2.98,7.82c.03.08.07.12.12.12h9.44s.09-.03.1-.08l2.57-7.72-.1-.14H4.7Z"/><circle class="cls-1" cx="5.93" cy="19.84" r="2"/><circle class="cls-1" cx="18.93" cy="19.84" r="2"/></g></svg>