<?xml version="1.0" encoding="UTF-8"?><svg id="_레이어_2" xmlns="http://www.w3.org/2000/svg" viewBox="0 0 32 32"><defs><style>.cls-1{fill:#fff;}</style></defs><g id="_레이어_1-2"><path class="cls-1" d="m23.2,2c3.75,0,6.8,3.05,6.8,6.8,0,9.7-10.54,18.22-14,20.76-3.47-2.53-14-11.03-14-20.76,0-3.75,3.05-6.8,6.8-6.8,2.21,0,4.29,1.08,5.56,2.9l1.64,2.33,1.64-2.33c1.28-1.82,3.36-2.9,5.56-2.9m0-2c-2.98,0-5.61,1.48-7.2,3.75-1.59-2.27-4.22-3.75-7.2-3.75C3.94,0,0,3.94,0,8.8c0,12.8,16,23.2,16,23.2,0,0,16-10.4,16-23.2,0-4.86-3.94-8.8-8.8-8.8h0Z"/></g></svg>