<svg width="8" height="8" viewBox="0 0 8 8" fill="none" xmlns="http://www.w3.org/2000/svg">
<path d="M0.189307 6.86009C-0.0581835 7.10751 -0.0699687 7.54934 0.1952 7.80265C0.448583 8.06775 0.896424 8.05596 1.14391 7.80854L4.00184 4.9514L6.85977 7.80854C7.11316 8.06186 7.54921 8.06775 7.8026 7.80265C8.06777 7.54934 8.06187 7.10751 7.80849 6.8542L4.95056 3.99705L7.80849 1.1458C8.06187 0.886598 8.06777 0.450663 7.8026 0.197349C7.54921 -0.0677467 7.11316 -0.0618557 6.85977 0.191458L4.00184 3.0486L1.14391 0.191458C0.896424 -0.0559646 0.448583 -0.0677467 0.1952 0.197349C-0.0699687 0.450663 -0.0581835 0.892489 0.189307 1.13991L3.04724 3.99705L0.189307 6.86009Z" fill="#A6A6A6"/>
</svg>
