<?xml version="1.0" encoding="UTF-8"?><svg id="_레이어_2" xmlns="http://www.w3.org/2000/svg" viewBox="0 0 22.54 22.5"><defs><style>.cls-1{fill:#323232;}</style></defs><g id="_레이어_1-2"><path class="cls-1" d="m11.53,0c1.9-.07,3.92.41,5.73,1.47,2.74,1.6,4.76,3.85,5.2,7.12.41,3.03-.73,5.57-2.96,7.61-2.93,2.69-6.42,3.52-10.31,2.97-.25-.04-.57,0-.79.14-1.56.95-3.11,1.92-4.64,2.9-.31.2-.67.43-.94.16-.19-.19-.27-.64-.2-.93.29-1.32.63-2.63,1-3.94.12-.44.09-.7-.28-1.03C.29,13.75-.74,10.29.54,6.75,1.46,4.21,3.39,2.52,5.73,1.27,7.47.33,9.35-.03,11.53,0Z"/></g></svg>