<?xml version="1.0" encoding="UTF-8"?><svg id="_레이어_2" xmlns="http://www.w3.org/2000/svg" viewBox="0 0 100 22.5"><defs><style>.cls-1{fill:#323232;}</style></defs><g id="_레이어_1-2"><path class="cls-1" d="m11.53,0c1.9-.07,3.92.41,5.73,1.47,2.74,1.6,4.76,3.85,5.2,7.12.41,3.03-.73,5.57-2.96,7.61-2.93,2.69-6.42,3.52-10.31,2.97-.25-.04-.57,0-.79.14-1.56.95-3.11,1.92-4.64,2.9-.31.2-.67.43-.94.16-.19-.19-.27-.64-.2-.93.29-1.32.63-2.63,1-3.94.12-.44.09-.7-.28-1.03C.29,13.75-.74,10.29.54,6.75,1.46,4.21,3.39,2.52,5.73,1.27,7.47.33,9.35-.03,11.53,0Z"/><path class="cls-1" d="m56.69,4.57c0,.21,0,.47,0,.72,0,1.11.01,2.23-.02,3.34-.01.42.13.51.52.45.48-.08.96-.1,1.54-.16.04.64.1,1.25.11,1.87,0,.1-.24.27-.38.29-1.57.17-3.14.39-4.72.46-1.96.08-3.92.02-5.97.02,0-.55-.01-1.17.02-1.79,0-.08.21-.21.33-.22.43-.03.86-.01,1.37-.01,0-.42,0-.8,0-1.17,0-1.15,0-2.3,0-3.44,0-.34-.11-.49-.45-.44-.05,0-.1,0-.16,0q-.76,0-.75-.73c0-.12,0-.24,0-.37,0-1.02,0-1.02.99-1.02,2.76,0,5.53.01,8.29,0,.47,0,.7.12.61.61,0,.02,0,.03,0,.05,0,.43.14.98-.07,1.27-.18.24-.77.18-1.27.27Zm-2.68,2.34s.02,0,.02,0c0-.36,0-.73,0-1.09-.03-1.42-.03-1.41-1.44-1.35-.31.01-.42.11-.41.43.02,1.08,0,2.16,0,3.23,0,1.35,0,1.34,1.37,1.31.32,0,.48-.09.47-.44-.02-.69,0-1.39,0-2.08Z"/><path class="cls-1" d="m37.93,17.21c-2.75,0-5.5,0-8.25,0-.33,0-.48-.06-.47-.42.02-.47.02-.94,0-1.41-.02-.36.15-.44.47-.44,1.22.01,2.44-.02,3.65.02.5.02.63-.14.61-.62-.04-.87,0-1.74-.02-2.61,0-.37.08-.54.49-.52.61.03,1.22.02,1.83,0,.36-.02.5.11.49.48-.02.94,0,1.88-.02,2.82,0,.34.1.47.45.46.54-.02,1.08-.03,1.62,0,.39.02.48-.15.47-.49-.01-.92,0-1.85-.02-2.77,0-.36.11-.51.47-.5.63.02,1.25.02,1.88,0,.35,0,.49.11.49.48-.02.89.01,1.78-.02,2.66-.01.45.12.61.59.6,1.2-.03,2.4,0,3.6-.01.39,0,.53.12.51.51-.03.43-.02.87,0,1.3,0,.33-.12.46-.46.46-2.78,0-5.57,0-8.35,0,0,0,0,0,0,0Z"/><path class="cls-1" d="m80.78,10.44v9.54c-.88,0-1.72,0-2.57-.01-.08,0-.2-.21-.21-.33-.03-.29,0-.59,0-.89,0-5.5,0-10.99-.01-16.49,0-.5.17-.64.63-.62.71.02,1.41,0,2.17,0v6.41h2.84c0,.76.02,1.44-.02,2.13,0,.09-.26.24-.41.24-.78.02-1.56.01-2.41.01Z"/><path class="cls-1" d="m57.89,20.88c-1.04.03-2.11-.28-3.1-.81-1.25-.67-1.91-1.76-1.96-3.16-.06-1.61.72-2.82,2.1-3.51,2.27-1.12,4.58-1.14,6.71.38,2.17,1.55,2.01,4.82-.27,6.22-.95.59-2.07.88-3.48.88Zm2.65-4.02c-.08-.83-.64-1.67-1.39-1.78-.74-.1-1.53-.14-2.26,0-1.25.24-1.71,1.84-.88,2.81.93,1.09,3.22,1.03,4.1-.13.2-.26.29-.6.43-.9Z"/><path class="cls-1" d="m84.84,13.55c.63-.39,1.19-.73,1.74-1.09,1.96-1.3,3.53-2.93,4.32-5.2.16-.47.17-.99.29-1.48.1-.43-.09-.5-.47-.5-1.6.01-3.2,0-4.8,0q-.72,0-.72-.7c0-.49,0-.97,0-1.52.21-.02.39-.04.57-.04,2.58,0,5.15,0,7.73-.03.35,0,.43.12.45.45.24,4-1.22,7.28-4.23,9.87-.93.8-1.98,1.46-2.98,2.19-.26.19-.43.2-.63-.11-.39-.62-.82-1.2-1.27-1.86Z"/><path class="cls-1" d="m97.19,19.99c0-.38,0-.68,0-.97,0-5.62,0-11.24-.02-16.86,0-.37.12-.5.47-.49.66.01,1.32.02,1.98.01.3,0,.37.14.37.42-.03,5.45-.04,10.89-.06,16.34,0,.38.04.77,0,1.15-.02.14-.21.38-.33.38-.78.03-1.56.02-2.41.02Z"/><path class="cls-1" d="m71.28,6.66c1.93.11,3.35.75,4.17,2.39.77,1.54.64,3.04-.39,4.41-.85,1.14-2.05,1.6-3.44,1.65-2.45.09-4.33-1.49-4.63-3.92-.23-1.82,1.01-3.68,2.89-4.26.51-.16,1.05-.21,1.41-.28Zm2,4.14c-.03-.13-.06-.41-.14-.67-.24-.8-.96-1.32-1.75-1.28-.9.04-1.53.52-1.67,1.42-.08.5-.04,1.03.07,1.53.13.61.59.95,1.2,1.08,1.26.27,2.29-.6,2.29-2.07Z"/><path class="cls-1" d="m30.88,9.01c.93-.4,1.86-.68,2.66-1.17.79-.48,1.5-1.11,2.15-1.78.74-.76.9-1.78.92-2.81,0-.33,0-.65,0-1.02h2.8c.06,1.05.04,2.07-.27,3.05-.16.51-.02.72.47.93,1.73.73,3.43,1.52,5.14,2.29.15.07.29.18.44.28-.42.8-.81,1.57-1.24,2.39-.55-.31-1.11-.61-1.66-.93-1.33-.76-2.65-1.52-3.97-2.3-.31-.18-.5-.21-.78.11-1.1,1.23-2.5,2.02-4.03,2.61-.39.15-.79.26-1.18.42-.27.11-.45.12-.59-.18-.28-.63-.57-1.26-.87-1.9Z"/><path class="cls-1" d="m70.07,1.41h2.8c-.03.61-.04,1.19-.1,1.77-.05.44.04.64.53.63,1.02-.02,2.05.01,3.07,0,.34,0,.47.09.45.43-.02.47-.01.94,0,1.41,0,.29-.1.38-.41.38-3.28-.01-6.57-.01-9.85,0-.35,0-.47-.11-.47-.44,0-.42.02-.84-.02-1.25-.03-.41.1-.54.53-.53,1.01.03,2.01-.01,3.02,0,.36,0,.45-.14.44-.46-.02-.64,0-1.28,0-1.94Z"/><path class="cls-1" d="m63.3,6.95c0,1.58-.01,3.16,0,4.74,0,.43-.12.59-.56.56-.61-.03-1.22-.01-1.82,0-.28,0-.39-.11-.39-.4,0-3.27,0-6.53.02-9.8,0-.13.22-.37.34-.38.71-.04,1.42-.04,2.14,0,.1,0,.28.27.28.42.02,1.62.01,3.23.01,4.85,0,0,0,0,0,0Z"/></g></svg>