<svg width="29" height="25" viewBox="0 0 29 25" fill="none" xmlns="http://www.w3.org/2000/svg">
<path fill-rule="evenodd" clip-rule="evenodd" d="M17.149 1.58801C15.9716 -0.45121 13.0283 -0.451214 11.8509 1.58801L1.1275 20.1615C-0.0498397 22.2007 1.42183 24.7498 3.77652 24.7498H25.2234C27.5781 24.7498 29.0497 22.2007 27.8724 20.1615L17.149 1.58801ZM15.5438 16.6032C15.5258 17.2574 15.1405 17.6517 14.5132 17.6517C13.8769 17.6517 13.4916 17.2574 13.4737 16.6032C13.4589 15.398 13.4396 14.0837 13.4202 12.7569C13.3923 10.8576 13.364 8.93258 13.3482 7.26538C13.3482 6.6112 13.8411 6.13625 14.5042 6.13625C15.1674 6.13625 15.6603 6.6112 15.6603 7.26538C15.6484 9.13225 15.6172 11.3224 15.5869 13.4378C15.5713 14.5312 15.556 15.6047 15.5438 16.6032ZM16.0635 20.6806C16.0635 21.532 15.3645 22.213 14.5042 22.213C13.6439 22.213 12.936 21.532 12.936 20.6806C12.936 19.8293 13.6439 19.1482 14.5042 19.1482C15.3645 19.1482 16.0635 19.8293 16.0635 20.6806Z" fill="#F03D3E"/>
</svg>
