<?xml version="1.0" encoding="UTF-8"?>
<svg width="15px" height="12px" viewBox="0 0 15 12" version="1.1" xmlns="http://www.w3.org/2000/svg" xmlns:xlink="http://www.w3.org/1999/xlink">
    <title>ico_store_pc</title>
    <defs>
        <path d="M23.55,11.5 C21.984,11.5 20.481,12.396406 19.5,13.582237 C18.519,12.396406 17.016,11.5 15.45,11.5 C12.678,11.5 10.5,13.7419619 10.5,16.5953678 C10.5,20.0972752 13.56,22.9506812 18.195,27.286376 L19.5,28.5 L20.805,27.2771117 C25.44,22.9506812 28.5,20.0972752 28.5,16.5953678 C28.5,13.7419619 26.322,11.5 23.55,11.5 Z" id="path-1"></path>
        <filter x="-11.1%" y="-11.8%" width="122.2%" height="123.5%" filterUnits="objectBoundingBox" id="filter-2">
            <feMorphology radius="0.5" operator="erode" in="SourceAlpha" result="shadowSpreadOuter1"></feMorphology>
            <feOffset dx="0" dy="0" in="shadowSpreadOuter1" result="shadowOffsetOuter1"></feOffset>
            <feMorphology radius="0.5" operator="erode" in="SourceAlpha" result="shadowInner"></feMorphology>
            <feOffset dx="0" dy="0" in="shadowInner" result="shadowInner"></feOffset>
            <feComposite in="shadowOffsetOuter1" in2="shadowInner" operator="out" result="shadowOffsetOuter1"></feComposite>
            <feGaussianBlur stdDeviation="1" in="shadowOffsetOuter1" result="shadowBlurOuter1"></feGaussianBlur>
            <feColorMatrix values="0 0 0 0 0   0 0 0 0 0   0 0 0 0 0  0 0 0 0.143138112 0" type="matrix" in="shadowBlurOuter1"></feColorMatrix>
        </filter>
        <path d="M23.55,11.5 C21.984,11.5 20.481,12.396406 19.5,13.582237 C18.519,12.396406 17.016,11.5 15.45,11.5 C12.678,11.5 10.5,13.7419619 10.5,16.5953678 C10.5,20.0972752 13.56,22.9506812 18.195,27.286376 L19.5,28.5 L20.805,27.2771117 C25.44,22.9506812 28.5,20.0972752 28.5,16.5953678 C28.5,13.7419619 26.322,11.5 23.55,11.5 Z" id="path-3"></path>
        <filter x="-8.3%" y="-8.8%" width="116.7%" height="117.6%" filterUnits="objectBoundingBox" id="filter-4">
            <feMorphology radius="0.5" operator="erode" in="SourceAlpha" result="shadowSpreadOuter1"></feMorphology>
            <feOffset dx="0" dy="0" in="shadowSpreadOuter1" result="shadowOffsetOuter1"></feOffset>
            <feGaussianBlur stdDeviation="1" in="shadowOffsetOuter1" result="shadowBlurOuter1"></feGaussianBlur>
            <feColorMatrix values="0 0 0 0 0   0 0 0 0 0   0 0 0 0 0  0 0 0 0.143138112 0" type="matrix" in="shadowBlurOuter1"></feColorMatrix>
        </filter>
        <path d="M38,71 C12.23625,71 3,61.764375 3,36 C3,11.208125 12.23625,1 38,1 C63.764375,1 73,10.23625 73,36 C73,61.764375 63.764375,71 38,71 Z" id="path-5"></path>
        <filter x="-7.9%" y="-5.0%" width="115.7%" height="115.7%" filterUnits="objectBoundingBox" id="filter-6">
            <feOffset dx="0" dy="2" in="SourceAlpha" result="shadowOffsetOuter1"></feOffset>
            <feGaussianBlur stdDeviation="1.5" in="shadowOffsetOuter1" result="shadowBlurOuter1"></feGaussianBlur>
            <feComposite in="shadowBlurOuter1" in2="SourceAlpha" operator="out" result="shadowBlurOuter1"></feComposite>
            <feColorMatrix values="0 0 0 0 0   0 0 0 0 0   0 0 0 0 0  0 0 0 0.103010271 0" type="matrix" in="shadowBlurOuter1"></feColorMatrix>
        </filter>
        <path d="M38,71 C12.23625,71 3,61.764375 3,36 C3,11.208125 12.23625,1 38,1 C63.764375,1 73,10.23625 73,36 C73,61.764375 63.764375,71 38,71 Z" id="path-7"></path>
        <filter x="-7.9%" y="-5.0%" width="115.7%" height="115.7%" filterUnits="objectBoundingBox" id="filter-8">
            <feOffset dx="0" dy="2" in="SourceAlpha" result="shadowOffsetOuter1"></feOffset>
            <feGaussianBlur stdDeviation="1.5" in="shadowOffsetOuter1" result="shadowBlurOuter1"></feGaussianBlur>
            <feComposite in="shadowBlurOuter1" in2="SourceAlpha" operator="out" result="shadowBlurOuter1"></feComposite>
            <feColorMatrix values="0 0 0 0 0   0 0 0 0 0   0 0 0 0 0  0 0 0 0.103010271 0" type="matrix" in="shadowBlurOuter1"></feColorMatrix>
        </filter>
        <path d="M29.5277575,4.03717464e-15 C29.9887844,4.03717464e-15 30.3625205,0.373845681 30.3625205,0.835007699 L30.362,16.917 L32.5573041,22.1771299 C33.2634114,23.8684477 32.0884563,25.7939394 30.2857711,25.7939394 L2.48017203,25.7939394 C0.676996382,25.7939394 -0.498201357,23.8686084 0.207974226,22.177127 L2.403,16.917 L2.40328947,0.835007699 C2.40328947,0.409319682 2.72173918,0.0580313849 3.13334154,0.00650589541 L3.23805244,4.03717464e-15 L29.5277575,4.03717464e-15 Z M28.9717398,17.9210097 L3.7941402,17.9210097 L1.74855643,22.8206843 C1.48884327,23.4427675 1.90461258,24.123924 2.48017203,24.123924 L30.2857711,24.123924 C30.8607196,24.123924 31.2764073,23.4427038 31.0166882,22.8206064 L28.9717398,17.9210097 Z M24.8805844,20.2171775 C25.3416113,20.2171775 25.7153474,20.5910232 25.7153474,21.0521852 C25.7153474,21.5133472 25.3416113,21.8871929 24.8805844,21.8871929 L7.18723899,21.8871929 C6.72621214,21.8871929 6.35247603,21.5133472 6.35247603,21.0521852 C6.35247603,20.5910232 6.72621214,20.2171775 7.18723899,20.2171775 Z M28.6929946,1.6700154 L4.0728154,1.6700154 L4.0728154,16.2509943 L28.6929946,16.2509943 L28.6929946,1.6700154 Z" id="path-9"></path>
        <path d="M38,71 C12.23625,71 3,61.764375 3,36 C3,11.208125 12.23625,1 38,1 C63.764375,1 73,10.23625 73,36 C73,61.764375 63.764375,71 38,71 Z" id="path-11"></path>
        <filter x="-7.9%" y="-5.0%" width="115.7%" height="115.7%" filterUnits="objectBoundingBox" id="filter-12">
            <feOffset dx="0" dy="2" in="SourceAlpha" result="shadowOffsetOuter1"></feOffset>
            <feGaussianBlur stdDeviation="1.5" in="shadowOffsetOuter1" result="shadowBlurOuter1"></feGaussianBlur>
            <feComposite in="shadowBlurOuter1" in2="SourceAlpha" operator="out" result="shadowBlurOuter1"></feComposite>
            <feColorMatrix values="0 0 0 0 0   0 0 0 0 0   0 0 0 0 0  0 0 0 0.103010271 0" type="matrix" in="shadowBlurOuter1"></feColorMatrix>
        </filter>
        <path d="M38,71 C12.23625,71 3,61.764375 3,36 C3,11.208125 12.23625,1 38,1 C63.764375,1 73,10.23625 73,36 C73,61.764375 63.764375,71 38,71 Z" id="path-13"></path>
        <filter x="-7.9%" y="-5.0%" width="115.7%" height="115.7%" filterUnits="objectBoundingBox" id="filter-14">
            <feOffset dx="0" dy="2" in="SourceAlpha" result="shadowOffsetOuter1"></feOffset>
            <feGaussianBlur stdDeviation="1.5" in="shadowOffsetOuter1" result="shadowBlurOuter1"></feGaussianBlur>
            <feComposite in="shadowBlurOuter1" in2="SourceAlpha" operator="out" result="shadowBlurOuter1"></feComposite>
            <feColorMatrix values="0 0 0 0 0   0 0 0 0 0   0 0 0 0 0  0 0 0 0.103010271 0" type="matrix" in="shadowBlurOuter1"></feColorMatrix>
        </filter>
        <path d="M0.816475043,26.4727273 C0.365548328,26.4727273 3.98872854e-14,26.1117452 3.98872854e-14,25.6664513 C3.98872854e-14,25.2211574 0.365548328,24.8601754 0.816475043,24.8601754 L2.807,24.86 L2.807,11.691 L2.30534075,11.6910014 C0.634510552,11.6910014 -0.470869756,9.96880669 0.220372847,8.39870663 L3.99136384,1.1658736 C4.36462655,0.449948561 5.11170151,0 5.92712951,0 L24.4881883,0 C25.3036626,0 26.0507718,0.449999117 26.4240129,1.16598656 L30.2175953,8.44708175 C30.8855758,9.96866038 29.7804221,11.6910014 28.1100322,11.6910014 L27.605,11.691 L27.606,24.86 L29.7289795,24.8601754 C30.1452195,24.8601754 30.4887111,25.1677577 30.539093,25.5653138 L30.5454545,25.6664513 C30.5454545,26.1117452 30.1799062,26.4727273 29.7289795,26.4727273 Z M25.972,11.691 L4.44,11.691 L4.44093304,24.8601754 L10.529,24.86 L10.5299361,17.0052838 C10.5299361,15.7768548 11.5381377,14.7817259 12.7823115,14.7817259 L17.6324639,14.7817259 C18.8766377,14.7817259 19.8848393,15.7768548 19.8848393,17.0052838 L19.884,24.86 L25.9738423,24.8601754 L25.972,11.691 Z M17.6324639,16.3942778 L12.7823115,16.3942778 C12.4398154,16.3942778 12.1628862,16.6676163 12.1628862,17.0052838 L12.1628862,24.8601754 L18.2518892,24.8601754 L18.2518892,17.0052838 C18.2518892,16.6676163 17.97496,16.3942778 17.6324639,16.3942778 Z M24.4881883,1.61255192 L5.92712951,1.61255192 C5.72327251,1.61255192 5.53650377,1.72503906 5.44318809,1.90402031 L1.69539492,9.08847823 C1.48942102,9.55766179 1.82368546,10.0784495 2.30534075,10.0784495 L28.1100322,10.0784495 C28.5911312,10.0784495 28.9253287,9.557615 28.7425511,9.13681099 L24.9721444,1.90404855 C24.8788342,1.72505169 24.6920569,1.61255192 24.4881883,1.61255192 Z" id="path-15"></path>
        <path d="M38,71 C12.23625,71 3,61.764375 3,36 C3,11.208125 12.23625,1 38,1 C63.764375,1 73,10.23625 73,36 C73,61.764375 63.764375,71 38,71 Z" id="path-17"></path>
        <filter x="-7.9%" y="-5.0%" width="115.7%" height="115.7%" filterUnits="objectBoundingBox" id="filter-18">
            <feOffset dx="0" dy="2" in="SourceAlpha" result="shadowOffsetOuter1"></feOffset>
            <feGaussianBlur stdDeviation="1.5" in="shadowOffsetOuter1" result="shadowBlurOuter1"></feGaussianBlur>
            <feComposite in="shadowBlurOuter1" in2="SourceAlpha" operator="out" result="shadowBlurOuter1"></feComposite>
            <feColorMatrix values="0 0 0 0 0   0 0 0 0 0   0 0 0 0 0  0 0 0 0.103010271 0" type="matrix" in="shadowBlurOuter1"></feColorMatrix>
        </filter>
        <path d="M14.0659988,1.79250554e-14 C16.0179241,1.79250554e-14 17.6348718,1.43449918 17.7284265,3.26854091 C18.753911,3.1355928 19.8273335,3.46287319 20.615561,4.24840846 C21.9713965,5.59961305 21.9713965,7.79212182 20.615561,9.14332641 L19.7401903,10.0166851 C23.9077452,11.438858 26.5439054,14.4264245 26.8098515,18.7542234 C26.8176228,18.7954833 26.8213317,18.8381573 26.8213317,18.8817025 C26.8213317,18.8956427 26.8209516,18.9094937 26.8202013,18.9232454 C26.8276867,19.1083944 26.8320856,19.296936 26.8320856,19.4878942 C26.8320856,24.3604623 24.303312,27.2477355 19.3978075,29.6821765 C18.5990724,30.0785626 16.0123158,31.2469212 15.6447442,31.4244832 L15.436469,31.5262091 C14.7592348,31.8608323 14.250142,32.1522123 13.8484529,32.4419798 C13.5899857,32.628431 13.2420998,32.628431 12.9836326,32.4419798 C12.5417747,32.1232355 11.9699581,31.8025402 11.1873414,31.4244832 C10.8197698,31.2469212 8.23301311,30.0785626 7.43427807,29.6821765 L7.18689469,29.5579937 C2.44377889,27.1492915 0,24.2778764 0,19.4878942 C0,14.9364756 2.49892496,11.7578891 6.61484694,10.1888672 L5.56656859,9.14332641 C4.21073304,7.79212182 4.21073304,5.59961305 5.56656859,4.24840846 C6.86948308,2.94994417 8.95163618,2.90357044 10.3101802,4.10925702 L10.3986919,4.193 L10.3992958,3.43658784 C10.3992958,1.52288523 12.0548387,1.79250554e-14 14.0659988,1.79250554e-14 Z M13.4160428,10.560074 C6.13421707,10.560074 1.48380197,13.7629571 1.48380197,19.4878942 C1.48380197,23.6747246 3.63769579,26.133972 8.09086448,28.3439336 C8.24641882,28.4211301 8.47605814,28.5303844 8.74668183,28.6571326 L11.7185483,30.0266784 L12.0616476,30.1926224 C12.5902017,30.454073 13.0326566,30.6958618 13.4160428,30.9380322 L13.5840464,30.8342098 C13.984861,30.5917394 14.4486058,30.3467873 15.0023114,30.0793099 C15.3956312,29.8893098 17.9726674,28.7253416 18.7412211,28.3439336 L18.977585,28.2252959 C21.6466148,26.8701503 23.4593446,25.4122179 24.4488717,23.5149482 L19.5906247,23.5140412 C19.1808841,23.5140412 18.8487237,23.1799791 18.8487237,22.7678927 C18.8487237,22.3558062 19.1808841,22.0217442 19.5906247,22.0217442 L25.0325278,22.0214489 C25.2328009,21.2896487 25.3373368,20.4964631 25.347468,19.6283426 L16.9908007,19.627851 C16.5810601,19.627851 16.2488997,19.293789 16.2488997,18.8817025 C16.2488997,18.4696161 16.5810601,18.135554 16.9908007,18.135554 L25.2562216,18.1353019 C24.5706674,13.2608797 20.1028131,10.560074 13.4160428,10.560074 Z M6.61097439,5.30842792 C5.84100039,6.07577201 5.84100039,7.31596286 6.61097439,8.08330695 L8.21434646,9.68106238 C9.77856315,9.27551453 11.5247896,9.06777701 13.4160428,9.06777701 L13.189,9.069 L9.41370343,5.30842792 C8.64087831,4.53824243 7.38379952,4.53824243 6.61097439,5.30842792 Z M17.7331925,4.77893763 L17.7331597,9.47676675 C17.8544316,9.50147884 17.9747339,9.52729582 18.0940515,9.55421359 L19.5711552,8.08330695 C20.3411292,7.31596286 20.3411292,6.07577201 19.5711552,5.30842792 C19.0731912,4.81216478 18.3741762,4.63566501 17.7331925,4.77893763 Z M14.0659988,1.49229702 C12.8462276,1.49229702 11.8830978,2.3782518 11.8830978,3.43658784 L11.8826919,5.668 L15.3738519,9.14588226 C15.6698122,9.17015007 15.9614178,9.20004062 16.2484999,9.23550854 L16.2488997,3.43658784 C16.2488997,2.3782518 15.2857699,1.49229702 14.0659988,1.49229702 Z" id="path-19"></path>
        <path d="M38,71 C12.23625,71 3,61.764375 3,36 C3,11.208125 12.23625,1 38,1 C63.764375,1 73,10.23625 73,36 C73,61.764375 63.764375,71 38,71 Z" id="path-21"></path>
        <filter x="-7.9%" y="-5.0%" width="115.7%" height="115.7%" filterUnits="objectBoundingBox" id="filter-22">
            <feOffset dx="0" dy="2" in="SourceAlpha" result="shadowOffsetOuter1"></feOffset>
            <feGaussianBlur stdDeviation="1.5" in="shadowOffsetOuter1" result="shadowBlurOuter1"></feGaussianBlur>
            <feComposite in="shadowBlurOuter1" in2="SourceAlpha" operator="out" result="shadowBlurOuter1"></feComposite>
            <feColorMatrix values="0 0 0 0 0   0 0 0 0 0   0 0 0 0 0  0 0 0 0.103010271 0" type="matrix" in="shadowBlurOuter1"></feColorMatrix>
        </filter>
        <path d="M7.28756165,1.44354885 L11.2804315,4.19617113 C11.9977697,4.69069291 12.4278075,5.48125645 12.4278075,6.33163138 L12.4274848,11.9463333 L12.9601901,11.9467333 C13.4012304,11.9467333 13.7587641,12.3083454 13.7587641,12.7544167 L13.759454,17.4649504 C14.1368019,17.5293245 14.4242424,17.8613862 14.4242424,18.2613491 L14.4242424,32.0286802 C14.4242424,32.4747514 14.0667087,32.8363636 13.6256684,32.8363636 L1.64705882,32.8363636 C1.2060186,32.8363636 0.848484848,32.4747514 0.848484848,32.0286802 L0.848484848,18.2613491 C0.848484848,17.8612646 1.13610021,17.5291225 1.51361743,17.4648918 L1.51396316,12.7544167 C1.51396316,12.3083454 1.87149691,11.9467333 2.31253714,11.9467333 L2.84448485,11.9463333 L2.84491979,3.5790091 C2.84491979,1.38895817 5.46354595,0.18546479 7.28756165,1.44354885 Z M12.8270945,19.0690325 L2.4456328,19.0690325 L2.4456328,31.2209968 L12.8270945,31.2209968 L12.8270945,19.0690325 Z M12.1616162,13.5621001 L3.11111111,13.5621001 L3.11111111,17.4536657 L12.1616162,17.4536657 L12.1616162,13.5621001 Z M4.44206774,3.5790091 L4.44206774,11.9467333 L10.8306595,11.9467333 L10.8306595,6.33163138 C10.8306595,6.02590495 10.6697526,5.73010023 10.3808876,5.5309612 L6.38786238,2.77823185 C5.58073213,2.22152738 4.44206774,2.7448457 4.44206774,3.5790091 Z" id="path-23"></path>
        <path d="M38,71 C12.23625,71 3,61.764375 3,36 C3,11.208125 12.23625,1 38,1 C63.764375,1 73,10.23625 73,36 C73,61.764375 63.764375,71 38,71 Z" id="path-25"></path>
        <filter x="-7.9%" y="-5.0%" width="115.7%" height="115.7%" filterUnits="objectBoundingBox" id="filter-26">
            <feOffset dx="0" dy="2" in="SourceAlpha" result="shadowOffsetOuter1"></feOffset>
            <feGaussianBlur stdDeviation="1.5" in="shadowOffsetOuter1" result="shadowBlurOuter1"></feGaussianBlur>
            <feComposite in="shadowBlurOuter1" in2="SourceAlpha" operator="out" result="shadowBlurOuter1"></feComposite>
            <feColorMatrix values="0 0 0 0 0   0 0 0 0 0   0 0 0 0 0  0 0 0 0.103010271 0" type="matrix" in="shadowBlurOuter1"></feColorMatrix>
        </filter>
        <path d="M38,71 C12.23625,71 3,61.764375 3,36 C3,11.208125 12.23625,1 38,1 C63.764375,1 73,10.23625 73,36 C73,61.764375 63.764375,71 38,71 Z" id="path-27"></path>
        <filter x="-7.9%" y="-5.0%" width="115.7%" height="115.7%" filterUnits="objectBoundingBox" id="filter-28">
            <feOffset dx="0" dy="2" in="SourceAlpha" result="shadowOffsetOuter1"></feOffset>
            <feGaussianBlur stdDeviation="1.5" in="shadowOffsetOuter1" result="shadowBlurOuter1"></feGaussianBlur>
            <feComposite in="shadowBlurOuter1" in2="SourceAlpha" operator="out" result="shadowBlurOuter1"></feComposite>
            <feColorMatrix values="0 0 0 0 0   0 0 0 0 0   0 0 0 0 0  0 0 0 0.103010271 0" type="matrix" in="shadowBlurOuter1"></feColorMatrix>
        </filter>
        <path d="M38,71 C12.23625,71 3,61.764375 3,36 C3,11.208125 12.23625,1 38,1 C63.764375,1 73,10.23625 73,36 C73,61.764375 63.764375,71 38,71 Z" id="path-29"></path>
        <filter x="-7.9%" y="-5.0%" width="115.7%" height="115.7%" filterUnits="objectBoundingBox" id="filter-30">
            <feOffset dx="0" dy="2" in="SourceAlpha" result="shadowOffsetOuter1"></feOffset>
            <feGaussianBlur stdDeviation="1.5" in="shadowOffsetOuter1" result="shadowBlurOuter1"></feGaussianBlur>
            <feComposite in="shadowBlurOuter1" in2="SourceAlpha" operator="out" result="shadowBlurOuter1"></feComposite>
            <feColorMatrix values="0 0 0 0 0   0 0 0 0 0   0 0 0 0 0  0 0 0 0.103010271 0" type="matrix" in="shadowBlurOuter1"></feColorMatrix>
        </filter>
        <path d="M38,71 C12.23625,71 3,61.764375 3,36 C3,11.208125 12.23625,1 38,1 C63.764375,1 73,10.23625 73,36 C73,61.764375 63.764375,71 38,71 Z" id="path-31"></path>
        <filter x="-7.9%" y="-5.0%" width="115.7%" height="115.7%" filterUnits="objectBoundingBox" id="filter-32">
            <feOffset dx="0" dy="2" in="SourceAlpha" result="shadowOffsetOuter1"></feOffset>
            <feGaussianBlur stdDeviation="1.5" in="shadowOffsetOuter1" result="shadowBlurOuter1"></feGaussianBlur>
            <feComposite in="shadowBlurOuter1" in2="SourceAlpha" operator="out" result="shadowBlurOuter1"></feComposite>
            <feColorMatrix values="0 0 0 0 0   0 0 0 0 0   0 0 0 0 0  0 0 0 0.103010271 0" type="matrix" in="shadowBlurOuter1"></feColorMatrix>
        </filter>
        <path d="M6.4390768,0.510215521 L10.4319467,3.26283779 C11.1492849,3.75735957 11.5793226,4.54792312 11.5793226,5.39829804 L11.579,11.013 L12.1117053,11.0133999 C12.5527455,11.0133999 12.9102793,11.3750121 12.9102793,11.8210833 L12.9109692,16.5316171 C13.288317,16.5959911 13.5757576,16.9280529 13.5757576,17.3280158 L13.5757576,31.0953469 C13.5757576,31.5414181 13.2182238,31.9030303 12.7771836,31.9030303 L0.798573975,31.9030303 C0.357533747,31.9030303 0,31.5414181 0,31.0953469 L0,17.3280158 C0,16.9279313 0.287615361,16.5957892 0.665132579,16.5315585 L0.665478313,11.8210833 C0.665478313,11.3750121 1.02301206,11.0133999 1.46405229,11.0133999 L1.996,11.013 L1.99643494,2.64567577 C1.99643494,0.455624836 4.6150611,-0.747868544 6.4390768,0.510215521 Z M11.9786096,18.1356992 L1.59714795,18.1356992 L1.59714795,30.2876635 L11.9786096,30.2876635 L11.9786096,18.1356992 Z M11.3131313,12.6287668 L2.26262626,12.6287668 L2.26262626,16.5203324 L11.3131313,16.5203324 L11.3131313,12.6287668 Z M3.59358289,2.64567577 L3.59358289,11.0133999 L9.98217469,11.0133999 L9.98217469,5.39829804 C9.98217469,5.09257162 9.8212677,4.7967669 9.5324027,4.59762787 L5.53937753,1.84489851 C4.73224728,1.28819405 3.59358289,1.81151237 3.59358289,2.64567577 Z" id="path-33"></path>
        <path d="M38,71 C12.23625,71 3,61.764375 3,36 C3,11.208125 12.23625,1 38,1 C63.764375,1 73,10.23625 73,36 C73,61.764375 63.764375,71 38,71 Z" id="path-35"></path>
        <filter x="-7.9%" y="-5.0%" width="115.7%" height="115.7%" filterUnits="objectBoundingBox" id="filter-36">
            <feOffset dx="0" dy="2" in="SourceAlpha" result="shadowOffsetOuter1"></feOffset>
            <feGaussianBlur stdDeviation="1.5" in="shadowOffsetOuter1" result="shadowBlurOuter1"></feGaussianBlur>
            <feComposite in="shadowBlurOuter1" in2="SourceAlpha" operator="out" result="shadowBlurOuter1"></feComposite>
            <feColorMatrix values="0 0 0 0 0   0 0 0 0 0   0 0 0 0 0  0 0 0 0.103010271 0" type="matrix" in="shadowBlurOuter1"></feColorMatrix>
        </filter>
        <path d="M14.5939394,4.03717464e-15 C18.8992823,4.03717464e-15 22.7690145,1.86402612 25.4401684,4.82911087 C25.5274675,4.88183576 25.6051962,4.95219401 25.668439,5.03929289 C25.7021209,5.08568013 25.7300158,5.13450444 25.7522603,5.18490451 C27.8952912,7.72563592 29.1878788,11.008753 29.1878788,14.5939394 C29.1878788,18.1767574 27.8969984,21.4579051 25.7549382,23.9976819 C25.733746,24.0500105 25.7051283,24.1005506 25.6703309,24.1484893 C25.6058746,24.2372877 25.5263623,24.3086919 25.4378338,24.3617425 C22.7664248,27.3250999 18.8978417,29.1878788 14.5939394,29.1878788 C10.3020417,29.1878788 6.44303823,27.3354769 3.77277077,24.3865147 L3.74995593,24.3605936 C3.66220715,24.3076703 3.58338518,24.2366689 3.5193976,24.1485272 C3.48571993,24.1021369 3.45782953,24.05331 3.43558967,24.0029079 C1.29258757,21.4622429 5.78123408e-14,18.1791258 5.78123408e-14,14.5939394 C5.78123408e-14,11.0111214 1.29088039,7.72997364 3.43294059,5.19019685 C3.45409924,5.13793275 3.48271233,5.08739007 3.51750534,5.03944812 C3.58195347,4.95064382 3.6614592,4.87923233 3.74998285,4.82617355 C6.42145399,1.86277893 10.290037,4.03717464e-15 14.5939394,4.03717464e-15 Z M14.5939394,1.57772318 C10.976875,1.57772318 7.70456092,3.0528477 5.34572908,5.43436497 C8.05607434,7.71872336 9.65874433,11.0276573 9.65874433,14.5948151 C9.65874433,18.1608249 8.05644577,21.4696472 5.34744469,23.754855 C7.70527188,26.1353516 10.9772679,27.6101556 14.5939394,27.6101556 C18.2111143,27.6101556 21.4835178,26.1349409 23.8423659,23.7532955 C21.1315835,21.4680408 19.5291345,18.1594393 19.5291345,14.5930636 C19.5291345,11.0273997 21.1316046,7.71853629 23.8404295,5.43312313 C21.4833179,3.0528477 18.2110038,1.57772318 14.5939394,1.57772318 Z M4.30609836,6.6200885 L4.26061823,6.67771606 C2.57785675,8.87104615 1.57772318,11.6156225 1.57772318,14.5939394 C1.57772318,17.5982738 2.59540667,20.364766 4.30487425,22.5675167 C6.68153577,20.5767045 8.08102115,17.6962656 8.08102115,14.5948151 C8.08102115,11.4925851 6.68149151,8.61232618 4.30609836,6.6200885 Z M24.8830045,6.6203621 L24.7282175,6.75006183 C22.4464508,8.73651978 21.1068576,11.5592414 21.1068576,14.5930636 C21.1068576,17.694948 22.5065711,20.5753047 24.881869,22.5677727 C26.5924721,20.364766 27.6101556,17.5982738 27.6101556,14.5939394 C27.6101556,11.589605 26.5924721,8.82311277 24.8830045,6.6203621 Z" id="path-37"></path>
        <path d="M38,71 C12.23625,71 3,61.764375 3,36 C3,11.208125 12.23625,1 38,1 C63.764375,1 73,10.23625 73,36 C73,61.764375 63.764375,71 38,71 Z" id="path-39"></path>
        <filter x="-7.9%" y="-5.0%" width="115.7%" height="115.7%" filterUnits="objectBoundingBox" id="filter-40">
            <feOffset dx="0" dy="2" in="SourceAlpha" result="shadowOffsetOuter1"></feOffset>
            <feGaussianBlur stdDeviation="1.5" in="shadowOffsetOuter1" result="shadowBlurOuter1"></feGaussianBlur>
            <feComposite in="shadowBlurOuter1" in2="SourceAlpha" operator="out" result="shadowBlurOuter1"></feComposite>
            <feColorMatrix values="0 0 0 0 0   0 0 0 0 0   0 0 0 0 0  0 0 0 0.103010271 0" type="matrix" in="shadowBlurOuter1"></feColorMatrix>
        </filter>
        <path d="M16.28824,0 C18.1593913,0 19.9556858,0.814485443 21.3163084,2.30771716 L21.4713493,2.48301759 L21.5648342,2.59642742 C22.4067382,3.65945716 23.0211761,5.58365761 23.4677839,8.41577262 L27.2472917,8.41623433 C28.7530649,8.41623433 30.0050639,9.6079153 30.1006448,11.060321 L32.5671809,27.7660962 L32.5741122,27.8303689 C32.6344086,28.7122353 32.3392287,29.5612027 31.7458547,30.209235 C31.1497038,30.8613612 30.3300126,31.2242424 29.4517515,31.2242424 L3.12595218,31.2242424 C2.24718646,31.2242424 1.42816197,30.8615385 0.832534178,30.2099836 C0.238725469,29.5620215 -0.0567876011,28.7136102 0.00904317898,27.7660607 L2.46937953,11.1246763 C2.57297288,9.60733217 3.82435928,8.41623433 5.330412,8.41623433 L9.10864986,8.41582087 C9.57142419,5.47985755 10.2146601,3.5196107 11.1046853,2.48314246 C12.4822976,0.87799691 14.3445421,0 16.28824,0 Z M3.21959016,17.3176502 L1.64833678,27.9416181 C1.61945099,28.3748291 1.76062411,28.780134 2.04944248,29.0952925 C2.33387797,29.406435 2.71140361,29.5736217 3.12595218,29.5736217 L29.4517515,29.5736217 C29.865868,29.5736217 30.244036,29.4062049 30.5287128,29.0947989 C30.810263,28.7873137 30.9511483,28.3933649 30.9297059,27.9720151 L29.3646677,17.3569859 C26.8861108,18.890143 23.6971166,20.1368636 20.1026645,20.6351413 C19.6989122,22.3680947 18.1444626,23.6588973 16.28824,23.6588973 C14.4467582,23.6588973 12.901585,22.3876377 12.4819727,20.6746913 C8.72313978,20.2306396 6.03256313,19.1191417 3.21959016,17.3176502 Z M16.28824,17.4690696 C15.0355633,17.4690696 14.0195139,18.4855119 14.0195139,19.7386731 C14.0195139,20.9918342 15.0355633,22.0082766 16.28824,22.0082766 C17.5414351,22.0082766 18.556966,20.9921612 18.556966,19.7386731 C18.556966,18.485185 17.5414351,17.4690696 16.28824,17.4690696 Z M27.2472917,10.0668551 L5.330412,10.0668551 C4.69870556,10.0668551 4.16044857,10.5791802 4.10858491,11.3015412 L3.48212465,15.5450493 C3.54349286,15.5670913 3.6032149,15.5968169 3.65997937,15.6344917 C6.38993834,17.4463734 8.89168434,18.5525697 12.4378409,19.0068743 C12.7807342,17.1914705 14.3744733,15.8184488 16.28824,15.8184488 C18.187106,15.8184488 19.7701744,17.1692404 20.1301609,18.9625177 C23.6237513,18.4393303 26.6966975,17.1589227 28.9943034,15.6344315 C29.0290475,15.6113783 29.0648991,15.5913028 29.1015575,15.574144 L28.4613962,11.2365906 C28.4169734,10.5793527 27.8785352,10.0668551 27.2472917,10.0668551 Z M16.28824,1.65062074 C14.8317324,1.65062074 13.4244518,2.31411474 12.3564133,3.55855558 C11.7758639,4.23462752 11.2589971,5.72087037 10.8553125,7.97848933 L10.8074168,8.25310372 L21.7689941,8.25310372 L21.721079,7.97849064 C21.3333895,5.81118659 20.8414631,4.35477324 20.2890871,3.64357194 L20.2197285,3.55855558 L20.0784561,3.39950688 C19.0292113,2.25798954 17.6808418,1.65062074 16.28824,1.65062074 Z" id="path-41"></path>
        <path d="M38,71 C12.23625,71 3,61.764375 3,36 C3,11.208125 12.23625,1 38,1 C63.764375,1 73,10.23625 73,36 C73,61.764375 63.764375,71 38,71 Z" id="path-43"></path>
        <filter x="-7.9%" y="-5.0%" width="115.7%" height="115.7%" filterUnits="objectBoundingBox" id="filter-44">
            <feOffset dx="0" dy="2" in="SourceAlpha" result="shadowOffsetOuter1"></feOffset>
            <feGaussianBlur stdDeviation="1.5" in="shadowOffsetOuter1" result="shadowBlurOuter1"></feGaussianBlur>
            <feComposite in="shadowBlurOuter1" in2="SourceAlpha" operator="out" result="shadowBlurOuter1"></feComposite>
            <feColorMatrix values="0 0 0 0 0   0 0 0 0 0   0 0 0 0 0  0 0 0 0.103010271 0" type="matrix" in="shadowBlurOuter1"></feColorMatrix>
        </filter>
        <path d="M9.87048678,-8.96252769e-15 L10.9962064,0.0176082559 L22.253428,0.0191239298 L23.5397194,0.00218251255 L24.0113159,0.0022192227 C26.1794135,0.0275265468 27.5201098,0.446500788 28.4261817,1.77470096 C28.9657571,2.56565821 29.2092551,4.00325425 29.3055611,6.09177887 L29.3232596,6.52446084 C29.3351925,6.86058716 29.3427061,7.19431489 29.3469639,7.56239441 L29.3510544,8.14487133 L29.349,9.066 L30.8966388,9.06612165 C32.2042108,9.06612165 33.2606061,10.1144397 33.2606061,11.404758 L33.2606061,23.3943754 C33.2606061,24.1926057 32.6025251,24.8396991 31.7907412,24.8396991 L29.9033755,24.8393359 C29.9100081,24.8801572 29.9134538,24.9220243 29.9134538,24.9646828 L29.9134538,27.7207325 C29.9134538,28.1561308 29.5545006,28.5090909 29.1117093,28.5090909 C28.6689181,28.5090909 28.3099648,28.1561308 28.3099648,27.7207325 L28.3099648,24.9646828 C28.3099648,24.9220243 28.3134105,24.8801572 28.3200431,24.8393359 L16.8366343,24.8396991 C16.7652164,24.8396991 16.6959795,24.830517 16.6300779,24.8132879 C16.5646961,24.8305078 16.4954255,24.8396991 16.4239717,24.8396991 L4.93401274,24.8393359 C4.94064536,24.8801572 4.94409103,24.9220243 4.94409103,24.9646828 L4.94409103,27.7207325 C4.94409103,28.1561308 4.5851378,28.5090909 4.14234654,28.5090909 C3.69955529,28.5090909 3.34060205,28.1561308 3.34060205,27.7207325 L3.34060205,24.9646828 C3.34060205,24.9220243 3.34404773,24.8801572 3.35068034,24.8393359 L1.4698649,24.8396991 C0.658080932,24.8396991 -2.77757615e-14,24.1926057 -2.77757615e-14,23.3943754 L-2.77757615e-14,11.404758 C-2.77757615e-14,10.1144397 1.0563953,9.06612165 2.36396722,9.06612165 L4.15069289,9.06612157 C4.14639747,9.03307248 4.14418312,8.99938375 4.14418312,8.96518648 L4.14234654,7.43304986 C4.14389199,7.1301835 4.1474879,6.86986086 4.15395295,6.62098688 L4.16590472,6.25237553 L4.19176437,5.71488395 C4.31582676,3.58838456 4.68984123,2.10562646 5.53897421,1.20810329 C6.32818284,0.373919418 7.49416625,0.059826068 9.14133,0.00789811729 L9.4048082,0.00156099086 L9.87048678,-8.96252769e-15 Z M5.48841266,10.6428385 L2.36396722,10.6428385 C1.94528302,10.6428385 1.60348898,10.9820191 1.60348898,11.404758 L1.60348898,23.2629823 L16.4239717,23.2629823 C16.4954255,23.2629823 16.5646961,23.2721737 16.6306274,23.2894195 C16.6959795,23.2721644 16.7652164,23.2629823 16.8366343,23.2629823 L31.6571171,23.2629823 L31.6571171,11.404758 C31.6571171,10.9820191 31.315323,10.6428385 30.8966388,10.6428385 L27.7721934,10.6428385 C27.3535092,10.6428385 27.0117152,10.9820191 27.0117152,11.404758 L27.0117152,15.1582734 C27.0117152,16.3193356 26.0545065,17.2605625 24.8737299,17.2605625 L16.8366343,17.2605625 C16.7652164,17.2605625 16.6959795,17.2513804 16.6300779,17.2341512 C16.5646961,17.2513711 16.4954255,17.2605625 16.4239717,17.2605625 L8.38687621,17.2605625 C7.20609952,17.2605625 6.24889089,16.3193356 6.24889089,15.1582734 L6.24889089,11.404758 C6.24889089,10.9820191 5.90709686,10.6428385 5.48841266,10.6428385 Z M9.19271302,1.58380519 L8.98772262,1.59205392 C7.84945674,1.64822543 7.10714232,1.86543686 6.7129947,2.28204608 C6.17586665,2.84978386 5.87108407,4.14285717 5.7797723,6.04740711 C5.76435134,6.36905233 5.75502179,6.66609013 5.74994797,7.01070163 L5.74578465,7.45169039 L5.7476721,8.96518648 C5.7476721,9.00431944 5.74477242,9.04278646 5.73917281,9.08039112 C6.92831423,9.20284549 7.85237988,10.1979588 7.85237988,11.404758 L7.85237988,15.1582734 C7.85237988,15.4485389 8.09168204,15.6838457 8.38687621,15.6838457 L16.4239717,15.6838457 C16.4954255,15.6838457 16.5646961,15.693037 16.6306274,15.7102828 C16.6959795,15.6930278 16.7652164,15.6838457 16.8366343,15.6838457 L24.8737299,15.6838457 C25.168924,15.6838457 25.4082262,15.4485389 25.4082262,15.1582734 L25.4082262,11.404758 C25.4082262,10.1234003 26.4500003,9.08069329 27.7449889,9.06627304 L27.7466882,7.95120453 C27.7428693,7.27669367 27.7305213,6.74446331 27.7037179,6.16319716 L27.6927551,5.94311565 C27.6034318,4.27656507 27.3932535,3.09092416 27.0945381,2.65304076 C26.5451011,1.8476274 25.5975485,1.57669994 23.7849629,1.57770093 L23.6311779,1.57822836 L22.5340148,1.59430348 L11.1127861,1.59548781 L9.98473109,1.57787252 C9.6670052,1.5743211 9.44141567,1.57596467 9.19271302,1.58380519 Z" id="path-45"></path>
        <path d="M38,71 C12.23625,71 3,61.764375 3,36 C3,11.208125 12.23625,1 38,1 C63.764375,1 73,10.23625 73,36 C73,61.764375 63.764375,71 38,71 Z" id="path-47"></path>
        <filter x="-7.9%" y="-5.0%" width="115.7%" height="115.7%" filterUnits="objectBoundingBox" id="filter-48">
            <feOffset dx="0" dy="2" in="SourceAlpha" result="shadowOffsetOuter1"></feOffset>
            <feGaussianBlur stdDeviation="1.5" in="shadowOffsetOuter1" result="shadowBlurOuter1"></feGaussianBlur>
            <feComposite in="shadowBlurOuter1" in2="SourceAlpha" operator="out" result="shadowBlurOuter1"></feComposite>
            <feColorMatrix values="0 0 0 0 0   0 0 0 0 0   0 0 0 0 0  0 0 0 0.103010271 0" type="matrix" in="shadowBlurOuter1"></feColorMatrix>
        </filter>
        <path d="M7.31855643,-1.09770778e-13 C7.73911114,-1.09770778e-13 8.08003809,0.341072346 8.08003809,0.761806407 L8.08088624,2.49546815 C13.7217456,2.84782342 17.0959486,7.14320428 17.0959486,13.7445309 L17.0959486,14.4215511 L19.6126082,14.4215511 C26.4520453,14.4215511 31.0288731,18.7958707 31.0288731,24.6597213 L31.0299194,27.6257623 C32.0995876,27.17335 33.0747358,26.6599974 33.9573595,26.0990258 C34.3123359,25.8734124 34.7829189,25.9784046 35.0084361,26.3335324 C35.2339533,26.6886603 35.1290059,27.159444 34.7740294,27.3850574 C31.1516352,29.6873526 26.1259579,31.2242424 19.6124103,31.2242424 C13.0987112,31.2241098 8.07161192,29.686837 4.45077385,27.3848718 C4.09582666,27.1592124 3.9909402,26.6884151 4.21650339,26.3333165 C4.44206659,25.9782179 4.91266323,25.8732867 5.26761043,26.0989461 C6.15008505,26.6599836 7.12534375,27.1734254 8.19531073,27.6259177 L8.19634321,12.3784199 L6.1124614,13.5755889 C4.34286032,14.592778 2.09590968,14.1255226 0.874009561,12.4868823 L0.151248994,11.5181608 C-0.0599389942,11.2351039 -0.048943051,10.8439415 0.177812557,10.5732061 L6.557,2.955 L6.55707477,0.761806407 C6.55707477,0.376133518 6.84354811,0.0573985973 7.21522788,0.00695439457 L7.31855643,-1.09770778e-13 Z M19.6124763,24.5976835 C17.3182611,24.5976835 15.4564164,26.469694 15.4564164,28.7802687 L15.456252,29.4680177 C16.7606949,29.6197117 18.1456286,29.700497 19.6124763,29.700497 C21.0795855,29.7006296 22.4647408,29.6198234 23.7693547,29.4680801 L23.7685362,28.7802687 C23.7685362,26.4694493 21.9071072,24.5976835 19.6124763,24.5976835 Z M7.669116,4.00124116 L1.73207358,11.0897861 L2.0945992,11.575682 C2.85594931,12.5966975 4.25301897,12.8872194 5.35389749,12.2544205 L8.57862302,10.4018484 C9.08627539,10.1102073 9.71930654,10.4768291 9.71930654,11.0624786 L9.71841823,28.2056846 C11.0041786,28.6437658 12.4080351,28.99902 13.9326303,29.2531084 L13.9334531,28.7802687 C13.9334531,25.6299329 16.4754359,23.0740707 19.6124763,23.0740707 C22.7499642,23.0740707 25.2914995,25.6297196 25.2914995,28.7802687 L25.2918364,29.2533185 C26.8166828,28.9991973 28.2207449,28.6438562 29.5067681,28.2056206 L29.5059098,24.6597213 C29.5059098,19.6533013 25.6261049,15.9451639 19.6126082,15.9451639 L16.3344669,15.9451639 C15.9139122,15.9451639 15.5729853,15.6040916 15.5729853,15.1833575 L15.5729853,13.7445309 C15.5729853,7.7782541 12.6486158,4.16249506 7.669116,4.00124116 Z" id="path-49"></path>
        <path d="M38,71 C12.23625,71 3,61.764375 3,36 C3,11.208125 12.23625,1 38,1 C63.764375,1 73,10.23625 73,36 C73,61.764375 63.764375,71 38,71 Z" id="path-51"></path>
        <filter x="-7.9%" y="-5.0%" width="115.7%" height="115.7%" filterUnits="objectBoundingBox" id="filter-52">
            <feOffset dx="0" dy="2" in="SourceAlpha" result="shadowOffsetOuter1"></feOffset>
            <feGaussianBlur stdDeviation="1.5" in="shadowOffsetOuter1" result="shadowBlurOuter1"></feGaussianBlur>
            <feComposite in="shadowBlurOuter1" in2="SourceAlpha" operator="out" result="shadowBlurOuter1"></feComposite>
            <feColorMatrix values="0 0 0 0 0   0 0 0 0 0   0 0 0 0 0  0 0 0 0.103010271 0" type="matrix" in="shadowBlurOuter1"></feColorMatrix>
        </filter>
        <path d="M29.5277575,4.03717464e-15 C29.9887844,4.03717464e-15 30.3625205,0.373845681 30.3625205,0.835007699 L30.362,16.917 L32.5573041,22.1771299 C33.2634114,23.8684477 32.0884563,25.7939394 30.2857711,25.7939394 L2.48017203,25.7939394 C0.676996382,25.7939394 -0.498201357,23.8686084 0.207974226,22.177127 L2.403,16.917 L2.40328947,0.835007699 C2.40328947,0.409319682 2.72173918,0.0580313849 3.13334154,0.00650589541 L3.23805244,4.03717464e-15 L29.5277575,4.03717464e-15 Z M28.9717398,17.9210097 L3.7941402,17.9210097 L1.74855643,22.8206843 C1.48884327,23.4427675 1.90461258,24.123924 2.48017203,24.123924 L30.2857711,24.123924 C30.8607196,24.123924 31.2764073,23.4427038 31.0166882,22.8206064 L28.9717398,17.9210097 Z M24.8805844,20.2171775 C25.3416113,20.2171775 25.7153474,20.5910232 25.7153474,21.0521852 C25.7153474,21.5133472 25.3416113,21.8871929 24.8805844,21.8871929 L7.18723899,21.8871929 C6.72621214,21.8871929 6.35247603,21.5133472 6.35247603,21.0521852 C6.35247603,20.5910232 6.72621214,20.2171775 7.18723899,20.2171775 Z M28.6929946,1.6700154 L4.0728154,1.6700154 L4.0728154,16.2509943 L28.6929946,16.2509943 L28.6929946,1.6700154 Z" id="path-53"></path>
        <path d="M38,71 C12.23625,71 3,61.764375 3,36 C3,11.208125 12.23625,1 38,1 C63.764375,1 73,10.23625 73,36 C73,61.764375 63.764375,71 38,71 Z" id="path-55"></path>
        <filter x="-7.9%" y="-5.0%" width="115.7%" height="115.7%" filterUnits="objectBoundingBox" id="filter-56">
            <feOffset dx="0" dy="2" in="SourceAlpha" result="shadowOffsetOuter1"></feOffset>
            <feGaussianBlur stdDeviation="1.5" in="shadowOffsetOuter1" result="shadowBlurOuter1"></feGaussianBlur>
            <feComposite in="shadowBlurOuter1" in2="SourceAlpha" operator="out" result="shadowBlurOuter1"></feComposite>
            <feColorMatrix values="0 0 0 0 0   0 0 0 0 0   0 0 0 0 0  0 0 0 0.103010271 0" type="matrix" in="shadowBlurOuter1"></feColorMatrix>
        </filter>
        <path d="M23.5218672,0 C27.4664686,0 29.1907257,1.75054217 30.8851988,6.31284532 L32.1197803,9.74838558 L33.5820847,13.7011558 C33.7315688,14.105345 33.5152902,14.5534206 33.1075785,14.6842148 L26.7662179,16.7185285 L26.7662179,28.4330199 C26.7662179,28.8499169 26.4310151,29.1878788 26.0175216,29.1878788 L7.92402757,29.1878788 C7.51053402,29.1878788 7.17533126,28.8499169 7.17533126,28.4330199 L7.17533126,16.7258677 L0.53102969,14.6870441 C0.0954900913,14.5533975 -0.121914753,14.0620276 0.0704185005,13.6459889 L1.62943866,10.2736556 C1.88729147,9.71234546 2.12866567,9.14608456 2.39154446,8.49230688 L2.62302146,7.90856761 L3.5647,5.49615902 C5.18345918,1.54626591 6.82187471,0 10.4196819,0 L23.5218672,0 Z M23.5218672,1.50971787 L22.9718416,1.50979135 C22.5847773,4.35733104 20.0376205,6.54211076 16.9707746,6.54211076 C13.9039286,6.54211076 11.3567719,4.35733104 10.9697076,1.50979135 L10.4196819,1.50971787 C7.49702358,1.50971787 6.30928959,2.67639859 4.86468406,6.27976167 L3.7776763,9.06340572 C3.58423517,9.5444069 3.40129823,9.98129502 3.21444125,10.4052563 L2.9874081,10.909801 L1.79188621,13.4958513 L7.175,15.147 L7.17533126,13.3358412 C7.17533126,12.9536855 7.45699469,12.6378574 7.82243391,12.5878732 L7.92402757,12.5809822 C8.33752112,12.5809822 8.67272387,12.9189441 8.67272387,13.3358412 L8.67272387,27.6781609 L25.2688253,27.6781609 L25.2688253,13.3358412 C25.2688253,12.9189441 25.604028,12.5809822 26.0175216,12.5809822 C26.4310151,12.5809822 26.7662179,12.9189441 26.7662179,13.3358412 L26.766,15.134 L31.904379,13.4859048 L30.7429339,10.3475174 L29.5202159,6.94444508 L29.3200693,6.41255338 C27.8878049,2.71156817 26.592347,1.50971787 23.5218672,1.50971787 Z M21.4543976,1.51005136 L12.4871516,1.51005136 C12.8664318,3.50545382 14.7217737,5.03239289 16.9707746,5.03239289 C19.2197755,5.03239289 21.0751174,3.50545382 21.4543976,1.51005136 Z" id="path-57"></path>
        <path d="M38,71 C12.23625,71 3,61.764375 3,36 C3,11.208125 12.23625,1 38,1 C63.764375,1 73,10.23625 73,36 C73,61.764375 63.764375,71 38,71 Z" id="path-59"></path>
        <filter x="-7.9%" y="-5.0%" width="115.7%" height="115.7%" filterUnits="objectBoundingBox" id="filter-60">
            <feOffset dx="0" dy="2" in="SourceAlpha" result="shadowOffsetOuter1"></feOffset>
            <feGaussianBlur stdDeviation="1.5" in="shadowOffsetOuter1" result="shadowBlurOuter1"></feGaussianBlur>
            <feComposite in="shadowBlurOuter1" in2="SourceAlpha" operator="out" result="shadowBlurOuter1"></feComposite>
            <feColorMatrix values="0 0 0 0 0   0 0 0 0 0   0 0 0 0 0  0 0 0 0.103010271 0" type="matrix" in="shadowBlurOuter1"></feColorMatrix>
        </filter>
        <path d="M0.816475043,26.4727273 C0.365548328,26.4727273 3.98872854e-14,26.1117452 3.98872854e-14,25.6664513 C3.98872854e-14,25.2211574 0.365548328,24.8601754 0.816475043,24.8601754 L2.807,24.86 L2.807,11.691 L2.30534075,11.6910014 C0.634510552,11.6910014 -0.470869756,9.96880669 0.220372847,8.39870663 L3.99136384,1.1658736 C4.36462655,0.449948561 5.11170151,0 5.92712951,0 L24.4881883,0 C25.3036626,0 26.0507718,0.449999117 26.4240129,1.16598656 L30.2175953,8.44708175 C30.8855758,9.96866038 29.7804221,11.6910014 28.1100322,11.6910014 L27.605,11.691 L27.606,24.86 L29.7289795,24.8601754 C30.1452195,24.8601754 30.4887111,25.1677577 30.539093,25.5653138 L30.5454545,25.6664513 C30.5454545,26.1117452 30.1799062,26.4727273 29.7289795,26.4727273 Z M25.972,11.691 L4.44,11.691 L4.44093304,24.8601754 L10.529,24.86 L10.5299361,17.0052838 C10.5299361,15.7768548 11.5381377,14.7817259 12.7823115,14.7817259 L17.6324639,14.7817259 C18.8766377,14.7817259 19.8848393,15.7768548 19.8848393,17.0052838 L19.884,24.86 L25.9738423,24.8601754 L25.972,11.691 Z M17.6324639,16.3942778 L12.7823115,16.3942778 C12.4398154,16.3942778 12.1628862,16.6676163 12.1628862,17.0052838 L12.1628862,24.8601754 L18.2518892,24.8601754 L18.2518892,17.0052838 C18.2518892,16.6676163 17.97496,16.3942778 17.6324639,16.3942778 Z M24.4881883,1.61255192 L5.92712951,1.61255192 C5.72327251,1.61255192 5.53650377,1.72503906 5.44318809,1.90402031 L1.69539492,9.08847823 C1.48942102,9.55766179 1.82368546,10.0784495 2.30534075,10.0784495 L28.1100322,10.0784495 C28.5911312,10.0784495 28.9253287,9.557615 28.7425511,9.13681099 L24.9721444,1.90404855 C24.8788342,1.72505169 24.6920569,1.61255192 24.4881883,1.61255192 Z" id="path-61"></path>
        <path d="M38,71 C12.23625,71 3,61.764375 3,36 C3,11.208125 12.23625,1 38,1 C63.764375,1 73,10.23625 73,36 C73,61.764375 63.764375,71 38,71 Z" id="path-63"></path>
        <filter x="-7.9%" y="-5.0%" width="115.7%" height="115.7%" filterUnits="objectBoundingBox" id="filter-64">
            <feOffset dx="0" dy="2" in="SourceAlpha" result="shadowOffsetOuter1"></feOffset>
            <feGaussianBlur stdDeviation="1.5" in="shadowOffsetOuter1" result="shadowBlurOuter1"></feGaussianBlur>
            <feComposite in="shadowBlurOuter1" in2="SourceAlpha" operator="out" result="shadowBlurOuter1"></feComposite>
            <feColorMatrix values="0 0 0 0 0   0 0 0 0 0   0 0 0 0 0  0 0 0 0.103010271 0" type="matrix" in="shadowBlurOuter1"></feColorMatrix>
        </filter>
        <path d="M14.0659988,1.79250554e-14 C16.0179241,1.79250554e-14 17.6348718,1.43449918 17.7284265,3.26854091 C18.753911,3.1355928 19.8273335,3.46287319 20.615561,4.24840846 C21.9713965,5.59961305 21.9713965,7.79212182 20.615561,9.14332641 L19.7401903,10.0166851 C23.9077452,11.438858 26.5439054,14.4264245 26.8098515,18.7542234 C26.8176228,18.7954833 26.8213317,18.8381573 26.8213317,18.8817025 C26.8213317,18.8956427 26.8209516,18.9094937 26.8202013,18.9232454 C26.8276867,19.1083944 26.8320856,19.296936 26.8320856,19.4878942 C26.8320856,24.3604623 24.303312,27.2477355 19.3978075,29.6821765 C18.5990724,30.0785626 16.0123158,31.2469212 15.6447442,31.4244832 L15.436469,31.5262091 C14.7592348,31.8608323 14.250142,32.1522123 13.8484529,32.4419798 C13.5899857,32.628431 13.2420998,32.628431 12.9836326,32.4419798 C12.5417747,32.1232355 11.9699581,31.8025402 11.1873414,31.4244832 C10.8197698,31.2469212 8.23301311,30.0785626 7.43427807,29.6821765 L7.18689469,29.5579937 C2.44377889,27.1492915 0,24.2778764 0,19.4878942 C0,14.9364756 2.49892496,11.7578891 6.61484694,10.1888672 L5.56656859,9.14332641 C4.21073304,7.79212182 4.21073304,5.59961305 5.56656859,4.24840846 C6.86948308,2.94994417 8.95163618,2.90357044 10.3101802,4.10925702 L10.3986919,4.193 L10.3992958,3.43658784 C10.3992958,1.52288523 12.0548387,1.79250554e-14 14.0659988,1.79250554e-14 Z M13.4160428,10.560074 C6.13421707,10.560074 1.48380197,13.7629571 1.48380197,19.4878942 C1.48380197,23.6747246 3.63769579,26.133972 8.09086448,28.3439336 C8.24641882,28.4211301 8.47605814,28.5303844 8.74668183,28.6571326 L11.7185483,30.0266784 L12.0616476,30.1926224 C12.5902017,30.454073 13.0326566,30.6958618 13.4160428,30.9380322 L13.5840464,30.8342098 C13.984861,30.5917394 14.4486058,30.3467873 15.0023114,30.0793099 C15.3956312,29.8893098 17.9726674,28.7253416 18.7412211,28.3439336 L18.977585,28.2252959 C21.6466148,26.8701503 23.4593446,25.4122179 24.4488717,23.5149482 L19.5906247,23.5140412 C19.1808841,23.5140412 18.8487237,23.1799791 18.8487237,22.7678927 C18.8487237,22.3558062 19.1808841,22.0217442 19.5906247,22.0217442 L25.0325278,22.0214489 C25.2328009,21.2896487 25.3373368,20.4964631 25.347468,19.6283426 L16.9908007,19.627851 C16.5810601,19.627851 16.2488997,19.293789 16.2488997,18.8817025 C16.2488997,18.4696161 16.5810601,18.135554 16.9908007,18.135554 L25.2562216,18.1353019 C24.5706674,13.2608797 20.1028131,10.560074 13.4160428,10.560074 Z M6.61097439,5.30842792 C5.84100039,6.07577201 5.84100039,7.31596286 6.61097439,8.08330695 L8.21434646,9.68106238 C9.77856315,9.27551453 11.5247896,9.06777701 13.4160428,9.06777701 L13.189,9.069 L9.41370343,5.30842792 C8.64087831,4.53824243 7.38379952,4.53824243 6.61097439,5.30842792 Z M17.7331925,4.77893763 L17.7331597,9.47676675 C17.8544316,9.50147884 17.9747339,9.52729582 18.0940515,9.55421359 L19.5711552,8.08330695 C20.3411292,7.31596286 20.3411292,6.07577201 19.5711552,5.30842792 C19.0731912,4.81216478 18.3741762,4.63566501 17.7331925,4.77893763 Z M14.0659988,1.49229702 C12.8462276,1.49229702 11.8830978,2.3782518 11.8830978,3.43658784 L11.8826919,5.668 L15.3738519,9.14588226 C15.6698122,9.17015007 15.9614178,9.20004062 16.2484999,9.23550854 L16.2488997,3.43658784 C16.2488997,2.3782518 15.2857699,1.49229702 14.0659988,1.49229702 Z" id="path-65"></path>
        <path d="M38,71 C12.23625,71 3,61.764375 3,36 C3,11.208125 12.23625,1 38,1 C63.764375,1 73,10.23625 73,36 C73,61.764375 63.764375,71 38,71 Z" id="path-67"></path>
        <filter x="-7.9%" y="-5.0%" width="115.7%" height="115.7%" filterUnits="objectBoundingBox" id="filter-68">
            <feOffset dx="0" dy="2" in="SourceAlpha" result="shadowOffsetOuter1"></feOffset>
            <feGaussianBlur stdDeviation="1.5" in="shadowOffsetOuter1" result="shadowBlurOuter1"></feGaussianBlur>
            <feComposite in="shadowBlurOuter1" in2="SourceAlpha" operator="out" result="shadowBlurOuter1"></feComposite>
            <feColorMatrix values="0 0 0 0 0   0 0 0 0 0   0 0 0 0 0  0 0 0 0.103010271 0" type="matrix" in="shadowBlurOuter1"></feColorMatrix>
        </filter>
        <path d="M38,71 C12.23625,71 3,61.764375 3,36 C3,11.208125 12.23625,1 38,1 C63.764375,1 73,10.23625 73,36 C73,61.764375 63.764375,71 38,71 Z" id="path-69"></path>
        <filter x="-7.9%" y="-5.0%" width="115.7%" height="115.7%" filterUnits="objectBoundingBox" id="filter-70">
            <feOffset dx="0" dy="2" in="SourceAlpha" result="shadowOffsetOuter1"></feOffset>
            <feGaussianBlur stdDeviation="1.5" in="shadowOffsetOuter1" result="shadowBlurOuter1"></feGaussianBlur>
            <feComposite in="shadowBlurOuter1" in2="SourceAlpha" operator="out" result="shadowBlurOuter1"></feComposite>
            <feColorMatrix values="0 0 0 0 0   0 0 0 0 0   0 0 0 0 0  0 0 0 0.103010271 0" type="matrix" in="shadowBlurOuter1"></feColorMatrix>
        </filter>
        <path d="M14.9840315,7.8811193 L21.1323904,7.97295061 C21.8552551,8.07804421 22.1439199,8.96882806 21.620715,9.47982812 L16.7709465,13.4251586 L18.2220883,19.9652763 C18.3455727,20.6868654 17.5898323,21.2374514 16.9431431,20.8964498 L11.4440794,17.1948642 L5.94461474,20.8964498 C5.29792549,21.2374514 4.54238557,20.6868654 4.66586994,19.9652763 L6.11701175,13.4251586 L1.26704284,9.47982812 C0.744038418,8.96882806 1.03270318,8.07804421 1.75576831,7.97295061 L7.90392681,7.8811193 L10.6534587,1.49251324 C10.9770037,0.83582892 11.911155,0.83582892 12.2342992,1.49251324 L14.9840315,7.8811193 Z" id="path-71"></path>
        <circle id="path-73" cx="2.2" cy="2.2" r="2.2"></circle>
        <circle id="path-75" cx="2.2" cy="2.2" r="2.2"></circle>
    </defs>
    <g id="ico_store_pc" stroke="none" stroke-width="1" fill="none" fill-rule="evenodd">
        <g id="Group" transform="translate(0.000000, 0.000000)" fill="#4684E9">
            <path d="M0.75,0 L14.25,0 C14.6642136,-7.6089797e-17 15,0.335786438 15,0.75 C15,1.16421356 14.6642136,1.5 14.25,1.5 L0.75,1.5 C0.335786438,1.5 5.07265313e-17,1.16421356 0,0.75 C-5.07265313e-17,0.335786438 0.335786438,7.6089797e-17 0.75,0 Z M0.75,5 L14.25,5 C14.6642136,5 15,5.33578644 15,5.75 C15,6.16421356 14.6642136,6.5 14.25,6.5 L0.75,6.5 C0.335786438,6.5 5.07265313e-17,6.16421356 0,5.75 C-5.07265313e-17,5.33578644 0.335786438,5 0.75,5 Z M0.75,10 L14.25,10 C14.6642136,10 15,10.3357864 15,10.75 C15,11.1642136 14.6642136,11.5 14.25,11.5 L0.75,11.5 C0.335786438,11.5 5.07265313e-17,11.1642136 0,10.75 C-5.07265313e-17,10.3357864 0.335786438,10 0.75,10 Z" id="ico_category"></path>
        </g>
    </g>
</svg>