
<svg width="26" height="27" viewBox="0 0 26 27" fill="none" xmlns="http://www.w3.org/2000/svg">
<path fill-rule="evenodd" clip-rule="evenodd" d="M13 26.0127C20.1797 26.0127 26 20.1924 26 13.0127C26 5.83299 20.1797 0.0126953 13 0.0126953C5.8203 0.0126953 0 5.83299 0 13.0127C0 20.1924 5.8203 26.0127 13 26.0127ZM14.2011 5.01419L11.5038 5.01762L11.5066 7.21364L14.2039 7.21021L14.2011 5.01419ZM10.7097 18.7199L10.0174 18.7208L10.0197 20.4872L15.7246 20.4799L15.7223 18.7135L15.0301 18.7144C14.7277 18.7148 14.5049 18.6435 14.3615 18.5004C14.2181 18.3574 14.1462 18.1347 14.1458 17.8324L14.1346 9.0244L10.0051 9.02966L10.0074 10.8199L10.6996 10.819C11.0179 10.8186 11.2407 10.8899 11.3682 11.033C11.5116 11.1601 11.5835 11.3748 11.5839 11.6772L11.5917 17.8117C11.5921 18.13 11.5208 18.3608 11.3777 18.5042C11.2506 18.6476 11.0279 18.7195 10.7097 18.7199Z" fill="#5495F7"/>
</svg>
