<svg width="26" height="26" viewBox="0 0 26 26" fill="none" xmlns="http://www.w3.org/2000/svg">
<path fill-rule="evenodd" clip-rule="evenodd" d="M13 26C20.1797 26 26 20.1797 26 13C26 5.8203 20.1797 0 13 0C5.8203 0 0 5.8203 0 13C0 20.1797 5.8203 26 13 26ZM11.6304 19C12.1 19 12.5043 18.7611 12.7913 18.3363L18.6739 9.0177C18.8435 8.73894 19 8.42035 19 8.11504C19 7.45133 18.413 7 17.8 7C17.4087 7 17.0435 7.23894 16.7696 7.67699L11.5783 16.1195L9.16522 13C8.85217 12.5752 8.53913 12.4425 8.14783 12.4425C7.5087 12.4425 7 12.9735 7 13.6239C7 13.9425 7.11739 14.2478 7.33913 14.5265L10.4174 18.3363C10.7696 18.7876 11.1478 19 11.6304 19Z" fill="#00BB82"/>
</svg>
