<svg width="26" height="26" viewBox="0 0 26 26" fill="none" xmlns="http://www.w3.org/2000/svg">
<path fill-rule="evenodd" clip-rule="evenodd" d="M13 26C20.1797 26 26 20.1797 26 13C26 5.8203 20.1797 0 13 0C5.8203 0 0 5.8203 0 13C0 20.1797 5.8203 26 13 26ZM13.9435 15.2461C13.9262 15.885 13.5548 16.27 12.9502 16.27C12.3369 16.27 11.9655 15.885 11.9482 15.2461C11.934 14.0691 11.9154 12.7856 11.8966 11.4898C11.8698 9.63493 11.8425 7.75501 11.8273 6.12686C11.8273 5.48799 12.3023 5.02415 12.9415 5.02415C13.5807 5.02415 14.0558 5.48799 14.0558 6.12686C14.0444 7.95009 14.0142 10.089 13.9851 12.155C13.97 13.2227 13.9552 14.271 13.9435 15.2461ZM14.4444 19.2281C14.4444 20.0595 13.7707 20.7246 12.9415 20.7246C12.1123 20.7246 11.43 20.0595 11.43 19.2281C11.43 18.3967 12.1123 17.7316 12.9415 17.7316C13.7707 17.7316 14.4444 18.3967 14.4444 19.2281Z" fill="#FFA500"/>
</svg>
